<?xml version="1.0" standalone="no"?>
<!DOCTYPE svg PUBLIC "-//W3C//DTD SVG 20010904//EN"
 "http://www.w3.org/TR/2001/REC-SVG-20010904/DTD/svg10.dtd">
<svg version="1.0" xmlns="http://www.w3.org/2000/svg"
 width="920.000000pt" height="920.000000pt" viewBox="0 0 920.000000 920.000000"
 preserveAspectRatio="xMidYMid meet">
<metadata>
Created by potrace 1.11, written by Peter Selinger 2001-2013
</metadata>
<g transform="translate(0.000000,920.000000) scale(0.100000,-0.100000)"
fill="#000000" stroke="none">
<path d="M4385 8874 c-22 -2 -92 -9 -155 -15 -384 -36 -820 -163 -1180 -344
-954 -479 -1653 -1393 -1854 -2422 -51 -264 -60 -359 -61 -673 0 -370 22 -565
102 -875 334 -1309 1414 -2313 2744 -2554 378 -69 860 -69 1238 0 1330 241
2412 1248 2744 2554 70 275 96 469 104 765 15 581 -91 1082 -337 1597 -163
340 -373 642 -635 912 -201 207 -499 451 -551 451 -67 0 -138 -75 -222 -234
-33 -61 -107 -188 -165 -283 -59 -95 -123 -202 -143 -238 l-36 -66 -92 88
c-238 230 -556 421 -937 563 -63 24 -115 44 -117 45 -2 2 42 108 159 386 60
143 70 207 41 272 -17 38 -27 47 -59 56 -38 11 -510 23 -588 15z m435 -183 c0
-32 -248 -603 -414 -954 l-47 -98 -30 60 c-54 108 -125 143 -289 144 -88 1
-113 -3 -155 -22 -100 -44 -151 -119 -180 -263 -13 -66 -45 -339 -45 -392 0
-11 -15 16 -34 60 -84 204 -201 307 -352 307 -113 0 -201 -60 -261 -176 -22
-43 -27 -69 -31 -153 -6 -130 4 -176 128 -609 55 -192 98 -350 97 -352 -2 -1
-27 14 -56 33 -104 70 -178 98 -268 102 -99 5 -149 -15 -211 -82 -83 -90 -83
-216 0 -381 93 -183 395 -540 611 -723 l78 -66 -38 -11 c-52 -16 -297 -141
-424 -217 -148 -89 -289 -197 -400 -308 -82 -80 -103 -108 -137 -180 -45 -95
-62 -163 -62 -249 0 -131 45 -260 136 -389 83 -118 432 -450 659 -627 496
-388 958 -533 1780 -561 328 -10 546 17 765 96 397 144 639 237 725 280 265
131 692 468 800 631 107 160 115 287 33 504 -212 562 -816 987 -1633 1150 -93
19 -217 39 -275 46 -58 7 -108 15 -112 18 -3 3 21 47 54 96 65 99 215 389 301
585 66 152 102 250 162 444 56 180 81 237 172 386 38 63 105 176 148 250 43
74 168 285 277 468 109 184 219 372 244 418 l46 85 47 -38 c470 -378 818 -840
1031 -1373 340 -850 310 -1807 -81 -2628 -648 -1362 -2123 -2113 -3597 -1831
-1128 215 -2069 1012 -2471 2091 -255 684 -274 1447 -54 2132 134 416 304 735
582 1086 105 132 384 408 521 514 506 393 1095 632 1710 695 112 11 550 13
550 2z m-716 -1085 c56 -58 86 -188 107 -461 14 -186 17 -500 6 -667 -7 -112
-7 -117 15 -142 28 -32 85 -44 129 -26 52 22 72 70 138 339 90 367 127 461
228 593 75 98 113 112 134 51 17 -53 5 -258 -25 -433 -60 -336 -71 -520 -36
-578 37 -60 125 -77 174 -33 10 9 43 52 74 96 86 122 243 315 294 362 76 69
149 98 176 71 18 -18 15 -54 -13 -187 -47 -222 -153 -497 -321 -833 -77 -154
-148 -266 -227 -359 l-56 -66 -308 -6 c-382 -7 -578 -30 -866 -99 l-129 -30
-26 29 c-15 17 -65 62 -112 101 -107 88 -306 292 -390 397 -73 92 -187 261
-219 322 -26 53 -28 109 -3 117 72 23 277 -121 443 -312 59 -67 101 -87 161
-75 35 7 75 44 84 77 4 18 -45 205 -165 623 -94 329 -173 621 -177 649 -7 58
15 153 41 174 29 24 73 16 111 -21 69 -67 112 -191 179 -516 41 -201 74 -312
121 -404 54 -109 123 -148 172 -96 43 46 45 64 47 467 1 488 24 707 87 838 36
76 101 93 152 38z m896 -2502 c263 -21 469 -51 643 -95 103 -26 408 -125 472
-154 l50 -22 -17 -332 c-9 -183 -18 -335 -20 -337 -6 -5 -458 52 -465 60 -4 4
-10 60 -13 126 -5 113 -6 121 -32 147 -57 57 -208 38 -254 -32 -10 -15 -20
-63 -26 -117 -5 -51 -10 -93 -11 -95 -4 -4 -179 16 -184 20 -2 3 1 51 7 108
11 95 10 104 -8 128 -29 41 -79 61 -147 60 -138 -1 -167 -35 -158 -186 l6 -96
-39 6 c-21 4 -65 7 -96 7 l-58 0 0 103 c0 120 -15 160 -74 190 -31 16 -48 18
-112 12 -63 -6 -81 -12 -107 -35 -32 -28 -32 -29 -35 -139 l-4 -111 -56 0
c-32 0 -63 4 -70 8 -7 5 -15 49 -21 116 -8 102 -10 109 -39 139 -26 26 -40 31
-90 35 -72 5 -125 -11 -147 -44 -8 -13 -23 -74 -33 -135 l-17 -111 -50 6 c-27
3 -125 6 -217 6 l-167 0 5 53 c11 126 45 465 50 499 l7 38 109 35 c248 78 546
128 893 149 70 4 431 -3 525 -10z m-1703 -286 c-3 -24 -13 -128 -22 -233 -9
-104 -18 -205 -21 -222 l-5 -33 -76 0 -75 0 6 68 c10 104 35 291 47 348 9 48
11 51 72 81 34 18 66 32 71 32 5 1 6 -18 3 -41z m3142 -141 l43 -30 -4 -263
c-2 -144 -6 -266 -10 -269 -3 -3 -44 -1 -92 6 -67 9 -86 15 -86 28 0 9 7 133
15 276 8 143 15 275 15 293 l0 34 38 -23 c20 -12 57 -36 81 -52z m-3473 -103
c-8 -60 -17 -139 -21 -177 -6 -58 -9 -68 -28 -71 -35 -7 -347 -15 -347 -9 0 3
16 31 34 62 24 39 63 80 123 128 102 82 244 185 249 180 2 -2 -3 -52 -10 -113z
m3875 -274 c59 -81 158 -265 149 -273 -3 -2 -85 10 -184 26 l-179 31 7 80 c3
45 6 144 6 221 l0 139 70 -69 c39 -39 98 -108 131 -155z m-3605 -560 c-1 -236
-3 -430 -6 -430 -3 0 -26 19 -52 43 l-47 42 -16 140 c-9 77 -19 251 -22 388
l-6 247 75 0 74 0 0 -430z m612 308 c-1 -139 10 -193 48 -229 23 -22 34 -24
110 -24 139 1 159 29 169 238 l7 127 64 0 64 0 0 -139 c0 -135 1 -140 26 -170
36 -44 85 -56 169 -42 122 19 144 52 144 224 l1 107 28 0 c15 0 57 -3 94 -7
l68 -6 -7 -133 -6 -133 35 -35 c30 -30 43 -36 79 -36 68 0 115 17 148 55 38
44 51 90 51 185 l0 76 73 -7 c39 -4 79 -8 88 -8 14 -1 14 -9 7 -63 -12 -82 -5
-178 16 -210 47 -73 216 -75 285 -4 33 34 51 102 51 194 0 39 2 42 28 42 34 0
426 -50 431 -56 5 -4 -24 -472 -45 -729 -8 -99 -14 -184 -14 -190 0 -6 -33
-21 -72 -34 -40 -13 -152 -54 -248 -91 -321 -125 -388 -139 -670 -147 -440
-12 -870 43 -1180 149 -128 44 -286 116 -402 184 l-76 45 -6 72 c-13 164 -17
469 -10 686 l7 231 223 0 223 0 -1 -122z m-915 -125 c4 -131 10 -266 13 -300
4 -41 3 -63 -3 -63 -23 0 -281 268 -331 343 -47 71 -92 182 -92 228 0 20 25
22 291 27 l116 2 6 -237z m3523 24 c11 -10 -36 -383 -78 -625 l-21 -123 -67
-34 c-64 -32 -67 -33 -63 -12 3 22 36 503 49 713 l6 110 85 -12 c47 -7 87 -15
89 -17z m378 -62 c109 -19 200 -35 203 -35 11 0 -10 -77 -32 -115 -35 -60
-103 -125 -275 -263 -176 -140 -195 -153 -186 -125 9 30 44 280 56 398 14 144
19 175 29 175 5 0 97 -16 205 -35z"/>
<path d="M3390 8143 c-45 -17 -50 -32 -50 -150 0 -100 2 -115 20 -133 30 -30
83 -27 109 6 18 23 21 41 21 120 0 112 -8 138 -51 153 -17 6 -32 11 -33 10 -1
0 -8 -3 -16 -6z"/>
<path d="M6613 6710 c-34 -14 -43 -42 -43 -135 0 -79 2 -88 26 -112 20 -20 31
-24 57 -19 54 10 67 36 67 138 0 81 -2 91 -25 113 -25 26 -45 30 -82 15z"/>
<path d="M7245 6310 c-14 -16 -21 -48 -28 -136 -9 -113 -9 -115 14 -140 18
-19 32 -24 58 -22 55 5 68 34 76 164 7 105 6 113 -14 133 -27 27 -82 28 -106
1z"/>
<path d="M2230 5943 c-15 -19 -19 -35 -15 -53 21 -81 35 -161 35 -203 0 -59
32 -97 80 -97 46 0 70 30 70 91 0 70 -38 250 -57 271 -26 29 -87 24 -113 -9z"/>
<path d="M7450 4590 c-19 -19 -20 -29 -14 -148 6 -118 8 -129 31 -149 44 -41
103 -20 119 43 9 35 -2 180 -17 222 -19 54 -81 70 -119 32z"/>
<path d="M1870 4462 c-21 -17 -24 -32 -32 -141 -8 -104 -7 -126 6 -146 28 -43
101 -42 125 3 5 10 13 72 17 139 6 114 6 121 -15 142 -26 26 -71 27 -101 3z"/>
<path d="M4570 2433 c-18 -23 -20 -36 -15 -73 18 -134 38 -170 97 -170 34 0
68 32 68 63 -1 60 -30 182 -46 194 -31 23 -80 16 -104 -14z"/>
<path d="M6020 1733 c-19 -3 -38 -10 -42 -16 -4 -7 -8 -315 -8 -684 0 -660 0
-673 20 -693 25 -25 62 -26 83 -2 22 24 27 92 36 520 7 299 11 376 22 386 8 7
53 18 101 24 48 6 98 18 111 27 13 8 37 39 53 68 26 47 29 60 28 142 -2 148
-32 188 -164 213 -67 13 -193 20 -240 15z m242 -113 c50 -14 68 -43 68 -106 0
-108 -32 -137 -150 -138 -88 -1 -87 -2 -95 120 -7 97 -6 109 11 121 21 16 114
17 166 3z"/>
<path d="M1022 1694 c-83 -42 -101 -146 -57 -321 29 -117 106 -528 131 -700
18 -125 14 -192 -13 -201 -7 -2 -21 11 -30 28 -47 85 -84 101 -138 58 -24 -18
-27 -26 -22 -60 6 -47 45 -100 99 -136 31 -20 53 -26 92 -26 91 0 147 49 160
138 13 83 -49 525 -106 761 -49 203 -59 303 -33 329 16 16 19 15 55 -24 20
-22 43 -40 51 -40 24 0 59 30 59 51 0 34 -41 109 -73 131 -41 29 -129 35 -175
12z"/>
<path d="M1507 1688 c-15 -24 -23 -355 -21 -883 0 -231 2 -254 22 -305 42
-107 118 -170 207 -170 55 0 93 18 129 61 85 101 109 325 97 932 l-6 339 -24
19 c-30 24 -86 25 -96 2 -16 -42 -26 -350 -21 -648 8 -417 -4 -523 -65 -556
-33 -17 -70 16 -93 82 -17 50 -19 92 -20 574 -1 378 -5 528 -14 548 -9 22 -18
27 -47 27 -25 0 -38 -6 -48 -22z"/>
<path d="M2908 1679 c-37 -21 -20 -294 42 -689 16 -102 36 -257 45 -345 16
-167 36 -258 62 -287 16 -18 78 -24 99 -10 26 17 36 62 45 191 5 75 13 161 19
191 50 279 110 849 96 905 -13 50 -82 58 -103 12 -14 -30 -30 -143 -38 -267
-7 -106 -51 -448 -64 -495 -8 -29 -8 -29 -15 15 -31 216 -67 484 -76 575 -18
194 -45 243 -112 204z"/>
<path d="M3968 1679 c-37 -21 -20 -294 42 -689 16 -102 36 -257 45 -345 16
-167 36 -258 62 -287 16 -18 78 -24 99 -10 26 17 36 62 45 189 5 74 15 176 24
226 57 356 105 814 91 872 -13 50 -82 58 -103 12 -14 -30 -30 -143 -38 -267
-7 -106 -51 -448 -64 -495 -8 -29 -8 -29 -15 15 -29 200 -67 484 -76 575 -6
61 -16 128 -21 150 -15 59 -49 79 -91 54z"/>
<path d="M7953 1680 c-13 -5 -23 -15 -24 -22 -1 -28 -11 -981 -12 -1103 0
-100 4 -137 16 -161 18 -35 32 -38 242 -51 116 -7 135 2 135 63 0 42 -14 49
-125 58 -142 12 -132 6 -141 94 -4 42 -2 229 4 417 11 347 4 593 -18 660 -6
19 -20 40 -30 45 -21 11 -18 11 -47 0z"/>
<path d="M2184 1666 c-18 -14 -19 -29 -20 -288 0 -150 -4 -440 -9 -644 l-8
-372 27 -17 c34 -23 68 -9 93 37 14 28 18 72 24 273 4 132 7 289 8 349 l1 108
28 -6 c44 -10 108 -87 131 -159 28 -85 31 -112 39 -354 6 -187 9 -214 26 -232
26 -28 60 -27 84 4 18 23 19 38 15 227 -6 311 -17 373 -89 485 -19 29 -34 58
-34 63 0 5 16 20 36 34 88 60 145 182 129 279 -20 120 -77 178 -210 213 -69
19 -245 18 -271 0z m231 -127 c105 -31 120 -45 119 -116 0 -112 -40 -148 -164
-148 l-75 0 -7 45 c-3 25 -7 89 -7 143 l-1 97 33 0 c17 0 64 -9 102 -21z"/>
<path d="M4714 1666 c-47 -21 -92 -82 -103 -140 -9 -49 -28 -822 -23 -956 3
-80 39 -159 89 -197 51 -39 144 -45 193 -11 50 34 78 92 90 184 19 159 30 395
30 644 -1 346 -15 415 -99 463 -41 25 -137 32 -177 13z m124 -126 c11 -11 26
-37 31 -57 14 -49 14 -491 0 -648 -5 -66 -14 -165 -18 -220 -4 -55 -13 -110
-19 -122 -28 -50 -130 -12 -133 49 -1 13 0 226 1 473 2 479 4 495 51 529 31
21 61 20 87 -4z"/>
<path d="M5257 1665 c-22 -21 -21 -9 -22 -415 0 -190 -4 -465 -9 -611 -9 -265
-9 -266 13 -288 11 -11 28 -21 37 -21 25 0 72 54 78 91 4 19 10 180 14 359 8
360 6 353 71 308 40 -27 87 -106 107 -180 9 -32 19 -148 25 -288 12 -253 18
-280 64 -280 14 0 35 10 46 21 21 21 22 27 16 253 -3 127 -10 258 -17 291 -12
61 -42 129 -88 198 l-27 40 25 16 c122 80 175 211 137 342 -21 70 -71 121
-146 150 -78 31 -298 40 -324 14z m249 -129 c80 -25 104 -48 104 -103 0 -122
-36 -157 -165 -157 l-80 -1 -9 128 c-4 70 -5 135 -2 144 8 19 67 14 152 -11z"/>
<path d="M6770 1669 c-36 -15 -69 -48 -93 -94 -21 -39 -22 -59 -31 -552 l-9
-512 27 -56 c38 -77 82 -108 160 -113 52 -3 66 0 96 20 49 33 78 91 89 179 20
148 31 390 31 644 -1 352 -15 420 -99 468 -37 22 -135 31 -171 16z m119 -128
c11 -11 24 -37 30 -58 14 -49 14 -500 1 -653 -6 -63 -14 -163 -19 -223 -5 -59
-14 -114 -21 -122 -7 -8 -28 -15 -47 -15 -38 0 -82 38 -84 74 -1 12 0 224 1
471 1 342 5 458 15 481 25 60 87 82 124 45z"/>
<path d="M7412 1673 c-34 -7 -99 -76 -112 -120 -13 -41 -34 -984 -24 -1038 13
-64 63 -133 116 -161 15 -8 52 -14 82 -14 48 0 60 4 92 33 65 57 74 90 96 381
16 206 18 309 14 491 -7 250 -20 331 -57 372 -47 51 -124 72 -207 56z m100
-124 c54 -29 68 -191 49 -569 -18 -351 -29 -460 -46 -486 -21 -32 -65 -32
-102 0 l-28 24 1 479 c1 505 1 508 48 545 24 20 49 22 78 7z"/>
<path d="M3602 1636 c-18 -24 -20 -55 -28 -568 -11 -639 -10 -657 11 -698 15
-28 20 -31 58 -28 l42 3 8 275 c17 625 13 971 -13 1019 -15 29 -54 27 -78 -3z"/>
</g>
</svg>
